<?xml version="1.0" encoding="UTF-8"?>
<svg width="445px" height="91px" viewBox="0 0 445 91" version="1.1" xmlns="http://www.w3.org/2000/svg" xmlns:xlink="http://www.w3.org/1999/xlink">
    <!-- Generator: Sketch 50.2 (55047) - http://www.bohemiancoding.com/sketch -->
    <title>HomeCooked.Logo</title>
    <desc>Created with Sketch.</desc>
    <defs></defs>
    <g id="HomeCooked.Logo" stroke="none" stroke-width="1" fill="none" fill-rule="evenodd">
        <g id="HomeCooked-Logo" transform="translate(13.000000, 9.000000)" stroke="#343434" stroke-linecap="round" stroke-linejoin="round" stroke-width="3.6400002">
            <g id="Group-2">
                <g id="Group" transform="translate(0.000000, 0.301587)">
                    <path d="M64.7073172,13.3550033 C63.322031,13.3550033 61.9865752,13.5567595 60.7096702,13.9035281 C57.4158782,5.75005334 49.5115247,0 40.2704697,0 C30.9945334,0 23.0677562,5.79670947 19.7976336,14.0018843 C18.4086101,13.587023 16.9423494,13.3550033 15.4212753,13.3550033 C6.90400739,13.3550033 0,20.3420747 0,28.9633717 C0,37.5859298 6.90400739,44.5730012 15.4212753,44.5730012 C16.465223,44.5730012 17.4855012,44.4645572 18.4708982,44.2653229 L18.4708982,67.3638924 L62.0750242,67.3638924 L62.0750242,44.3296327 C62.9321078,44.4784279 63.8078778,44.5730012 64.7073172,44.5730012 C73.2233393,44.5730012 80.126101,37.5859298 80.126101,28.9633717 C80.126101,20.3420747 73.2233393,13.3550033 64.7073172,13.3550033 Z" id="Stroke-1"></path>
                    <path d="M19.698388,60.8039776 L61.9865346,60.8039776" id="Stroke-9"></path>
                    <g id="Group-5" transform="translate(25.745727, 21.725260)">
                        <ellipse id="Oval" cx="14.9491319" cy="15.0405644" rx="14.9491319" ry="15.0405644"></ellipse>
                        <ellipse id="Oval-Copy-2" cx="14.9491319" cy="15.0405644" rx="8.60707591" ry="8.65971888"></ellipse>
                    </g>
                    <ellipse id="Oval-Copy" cx="63.1185567" cy="22.5608466" rx="3.3220293" ry="3.34234764"></ellipse>
                    <path d="M26.1652163,7.64756942 C26.1652163,7.64756942 32.5136558,9.34437193 34.4510792,15.3230303" id="Stroke-11" transform="translate(30.308148, 11.485300) scale(-1, 1) rotate(-2.000000) translate(-30.308148, -11.485300) "></path>
                </g>
            </g>
        </g>
        <path d="M141.836088,66.3391304 L132.74139,66.3391304 L132.74139,51.5797101 L118.094697,51.5797101 L118.094697,66.3391304 L109,66.3391304 L109,29.6057971 L118.094697,29.6057971 L118.094697,43.3188406 L132.74139,43.3188406 L132.74139,29.6057971 L141.836088,29.6057971 L141.836088,66.3391304 Z M158.043376,67 C149.371688,67 144.189826,60.5014493 144.189826,53.0115942 C144.189826,45.5217391 149.371688,39.0782609 158.043376,39.0782609 C166.820817,39.0782609 172.00268,45.5217391 172.00268,53.0115942 C172.00268,60.5014493 166.820817,67 158.043376,67 Z M158.043376,59.5101449 C161.638955,59.5101449 163.648248,56.5913043 163.648248,53.0115942 C163.648248,49.4869565 161.638955,46.5681159 158.043376,46.5681159 C154.553551,46.5681159 152.544257,49.4869565 152.544257,53.0115942 C152.544257,56.5913043 154.553551,59.5101449 158.043376,59.5101449 Z M214.436538,66.3391304 L206.346487,66.3391304 L206.346487,50.1478261 C206.346487,48.1101449 205.394716,46.5681159 202.962413,46.5681159 C200.741615,46.5681159 199.155331,48.0550725 198.362189,49.1565217 L198.362189,66.3391304 L190.219262,66.3391304 L190.219262,50.1478261 C190.219262,48.1101449 189.320367,46.5681159 186.888065,46.5681159 C184.667266,46.5681159 183.133858,48.0550725 182.28784,49.1565217 L182.28784,66.3391304 L174.144913,66.3391304 L174.144913,39.7391304 L182.28784,39.7391304 L182.28784,42.9884058 C183.398239,41.4463768 186.67656,39.0782609 190.695147,39.0782609 C194.396477,39.0782609 196.881656,40.6753623 197.939179,43.8144928 C199.419712,41.5014493 202.750909,39.0782609 206.769496,39.0782609 C211.475473,39.0782609 214.436538,41.6115942 214.436538,47.0637681 L214.436538,66.3391304 Z M230.538074,67 C222.659528,67 216.631647,61.657971 216.631647,53.0115942 C216.631647,45.3014493 222.183643,39.0782609 230.167941,39.0782609 C237.72923,39.0782609 243.228349,44.8608696 243.228349,53.8927536 L243.228349,55.8202899 L225.038955,55.8202899 C225.620592,58.1884058 227.735638,60.1710145 231.436968,60.1710145 C233.234757,60.1710145 236.195822,59.3449275 237.676354,57.9130435 L241.219056,63.4753623 C238.681001,65.8434783 234.450909,67 230.538074,67 Z M235.455556,50.0376812 C235.244051,48.1652174 233.922147,45.9072464 230.167941,45.9072464 C226.625239,45.9072464 225.250459,48.1101449 224.933202,50.0376812 L235.455556,50.0376812 Z M271.625172,67 C260.785562,67 252.536883,59.2898551 252.536883,48 C252.536883,36.6550725 260.785562,29 271.625172,29 C280.138232,29 284.738457,34.0115942 287.012131,38.8028986 L279.186461,42.7130435 C278.023186,39.7942029 275.009246,37.3710145 271.625172,37.3710145 C265.861672,37.3710145 261.790209,41.942029 261.790209,48 C261.790209,54.0028986 265.861672,58.6289855 271.625172,58.6289855 C275.009246,58.6289855 278.023186,56.2057971 279.186461,53.2869565 L287.012131,57.142029 C284.738457,61.8231884 280.138232,67 271.625172,67 Z M301.976414,67 C293.304726,67 288.122863,60.5014493 288.122863,53.0115942 C288.122863,45.5217391 293.304726,39.0782609 301.976414,39.0782609 C310.753855,39.0782609 315.935717,45.5217391 315.935717,53.0115942 C315.935717,60.5014493 310.753855,67 301.976414,67 Z M301.976414,59.5101449 C305.571992,59.5101449 307.581286,56.5913043 307.581286,53.0115942 C307.581286,49.4869565 305.571992,46.5681159 301.976414,46.5681159 C298.486588,46.5681159 296.477295,49.4869565 296.477295,53.0115942 C296.477295,56.5913043 298.486588,59.5101449 301.976414,59.5101449 Z M331.481638,67 C322.809949,67 317.628087,60.5014493 317.628087,53.0115942 C317.628087,45.5217391 322.809949,39.0782609 331.481638,39.0782609 C340.259078,39.0782609 345.440941,45.5217391 345.440941,53.0115942 C345.440941,60.5014493 340.259078,67 331.481638,67 Z M331.481638,59.5101449 C335.077216,59.5101449 337.086509,56.5913043 337.086509,53.0115942 C337.086509,49.4869565 335.077216,46.5681159 331.481638,46.5681159 C327.991812,46.5681159 325.982518,49.4869565 325.982518,53.0115942 C325.982518,56.5913043 327.991812,59.5101449 331.481638,59.5101449 Z M373.809743,66.3391304 L363.763275,66.3391304 L358.158404,56.9217391 L355.726101,59.9507246 L355.726101,66.3391304 L347.583174,66.3391304 L347.583174,29.6057971 L355.726101,29.6057971 L355.726101,50.3681159 L363.498895,39.7391304 L373.333858,39.7391304 L363.921904,51.8550725 L373.809743,66.3391304 Z M384.967776,67 C377.08923,67 371.061349,61.657971 371.061349,53.0115942 C371.061349,45.3014493 376.613345,39.0782609 384.597643,39.0782609 C392.158932,39.0782609 397.658052,44.8608696 397.658052,53.8927536 L397.658052,55.8202899 L379.468657,55.8202899 C380.050294,58.1884058 382.16534,60.1710145 385.866671,60.1710145 C387.66446,60.1710145 390.625524,59.3449275 392.106056,57.9130435 L395.648758,63.4753623 C393.110703,65.8434783 388.880611,67 384.967776,67 Z M389.885258,50.0376812 C389.673753,48.1652174 388.35185,45.9072464 384.597643,45.9072464 C381.054941,45.9072464 379.680161,48.1101449 379.362905,50.0376812 L389.885258,50.0376812 Z M426,66.3391304 L417.909949,66.3391304 L417.909949,63.2550725 C415.794903,65.7884058 413.203972,67 410.34866,67 C404.056399,67 399.086041,62.0434783 399.086041,53.0115942 C399.086041,44.3101449 403.950646,39.0782609 410.34866,39.0782609 C413.151096,39.0782609 415.900656,40.2347826 417.909949,42.8782609 L417.909949,29.6057971 L426,29.6057971 L426,66.3391304 Z M412.992468,59.5101449 C414.737381,59.5101449 416.852426,58.5188406 417.909949,57.0869565 L417.909949,48.9362319 C416.852426,47.5043478 414.737381,46.5681159 412.992468,46.5681159 C409.767023,46.5681159 407.387596,49.0463768 407.387596,53.0115942 C407.387596,56.9768116 409.767023,59.5101449 412.992468,59.5101449 Z" id="Home-Cooked" fill="#343434"></path>
    </g>
</svg>